G04 #@! TF.GenerationSoftware,KiCad,Pcbnew,6.0.1-79c1e3a40b~116~ubuntu21.04.1*
G04 #@! TF.CreationDate,2023-10-19T20:46:09+02:00*
G04 #@! TF.ProjectId,sequencer,73657175-656e-4636-9572-2e6b69636164,1.1*
G04 #@! TF.SameCoordinates,Original*
G04 #@! TF.FileFunction,Legend,Bot*
G04 #@! TF.FilePolarity,Positive*
%FSLAX46Y46*%
G04 Gerber Fmt 4.6, Leading zero omitted, Abs format (unit mm)*
G04 Created by KiCad (PCBNEW 6.0.1-79c1e3a40b~116~ubuntu21.04.1) date 2023-10-19 20:46:09*
%MOMM*%
%LPD*%
G01*
G04 APERTURE LIST*
%ADD10C,0.500000*%
%ADD11C,0.150000*%
%ADD12C,0.250000*%
%ADD13C,0.200000*%
%ADD14C,0.127000*%
%ADD15C,0.120000*%
G04 APERTURE END LIST*
D10*
X81280000Y-85725000D02*
X92710000Y-85725000D01*
D11*
X99500000Y-64970000D02*
X113750000Y-64970000D01*
D12*
X112471904Y-87978690D02*
X112471904Y-87235833D01*
X111171904Y-87607261D02*
X112471904Y-87607261D01*
X112471904Y-86926309D02*
X111171904Y-86059642D01*
X112471904Y-86059642D02*
X111171904Y-86926309D01*
X102250000Y-87112023D02*
X102311904Y-87235833D01*
X102311904Y-87421547D01*
X102250000Y-87607261D01*
X102126190Y-87731071D01*
X102002380Y-87792976D01*
X101754761Y-87854880D01*
X101569047Y-87854880D01*
X101321428Y-87792976D01*
X101197619Y-87731071D01*
X101073809Y-87607261D01*
X101011904Y-87421547D01*
X101011904Y-87297738D01*
X101073809Y-87112023D01*
X101135714Y-87050119D01*
X101569047Y-87050119D01*
X101569047Y-87297738D01*
X101011904Y-86492976D02*
X102311904Y-86492976D01*
X101011904Y-85750119D01*
X102311904Y-85750119D01*
X101011904Y-85131071D02*
X102311904Y-85131071D01*
X102311904Y-84821547D01*
X102250000Y-84635833D01*
X102126190Y-84512023D01*
X102002380Y-84450119D01*
X101754761Y-84388214D01*
X101569047Y-84388214D01*
X101321428Y-84450119D01*
X101197619Y-84512023D01*
X101073809Y-84635833D01*
X101011904Y-84821547D01*
X101011904Y-85131071D01*
X90128928Y-77455000D02*
X90252738Y-77393095D01*
X90438452Y-77393095D01*
X90624166Y-77455000D01*
X90747976Y-77578809D01*
X90809880Y-77702619D01*
X90871785Y-77950238D01*
X90871785Y-78135952D01*
X90809880Y-78383571D01*
X90747976Y-78507380D01*
X90624166Y-78631190D01*
X90438452Y-78693095D01*
X90314642Y-78693095D01*
X90128928Y-78631190D01*
X90067023Y-78569285D01*
X90067023Y-78135952D01*
X90314642Y-78135952D01*
X89509880Y-78693095D02*
X89509880Y-77393095D01*
X88767023Y-78693095D01*
X88767023Y-77393095D01*
X88147976Y-78693095D02*
X88147976Y-77393095D01*
X87838452Y-77393095D01*
X87652738Y-77455000D01*
X87528928Y-77578809D01*
X87467023Y-77702619D01*
X87405119Y-77950238D01*
X87405119Y-78135952D01*
X87467023Y-78383571D01*
X87528928Y-78507380D01*
X87652738Y-78631190D01*
X87838452Y-78693095D01*
X88147976Y-78693095D01*
X90128928Y-74915000D02*
X90252738Y-74853095D01*
X90438452Y-74853095D01*
X90624166Y-74915000D01*
X90747976Y-75038809D01*
X90809880Y-75162619D01*
X90871785Y-75410238D01*
X90871785Y-75595952D01*
X90809880Y-75843571D01*
X90747976Y-75967380D01*
X90624166Y-76091190D01*
X90438452Y-76153095D01*
X90314642Y-76153095D01*
X90128928Y-76091190D01*
X90067023Y-76029285D01*
X90067023Y-75595952D01*
X90314642Y-75595952D01*
X89509880Y-76153095D02*
X89509880Y-74853095D01*
X88767023Y-76153095D01*
X88767023Y-74853095D01*
X88147976Y-76153095D02*
X88147976Y-74853095D01*
X87838452Y-74853095D01*
X87652738Y-74915000D01*
X87528928Y-75038809D01*
X87467023Y-75162619D01*
X87405119Y-75410238D01*
X87405119Y-75595952D01*
X87467023Y-75843571D01*
X87528928Y-75967380D01*
X87652738Y-76091190D01*
X87838452Y-76153095D01*
X88147976Y-76153095D01*
X92047976Y-83277857D02*
X91057500Y-83277857D01*
X89757500Y-83773095D02*
X90500357Y-83773095D01*
X90128928Y-83773095D02*
X90128928Y-82473095D01*
X90252738Y-82658809D01*
X90376547Y-82782619D01*
X90500357Y-82844523D01*
X89262261Y-82596904D02*
X89200357Y-82535000D01*
X89076547Y-82473095D01*
X88767023Y-82473095D01*
X88643214Y-82535000D01*
X88581309Y-82596904D01*
X88519404Y-82720714D01*
X88519404Y-82844523D01*
X88581309Y-83030238D01*
X89324166Y-83773095D01*
X88519404Y-83773095D01*
X88147976Y-82473095D02*
X87714642Y-83773095D01*
X87281309Y-82473095D01*
X92047976Y-73117857D02*
X91057500Y-73117857D01*
X91552738Y-73613095D02*
X91552738Y-72622619D01*
X89757500Y-73613095D02*
X90500357Y-73613095D01*
X90128928Y-73613095D02*
X90128928Y-72313095D01*
X90252738Y-72498809D01*
X90376547Y-72622619D01*
X90500357Y-72684523D01*
X89262261Y-72436904D02*
X89200357Y-72375000D01*
X89076547Y-72313095D01*
X88767023Y-72313095D01*
X88643214Y-72375000D01*
X88581309Y-72436904D01*
X88519404Y-72560714D01*
X88519404Y-72684523D01*
X88581309Y-72870238D01*
X89324166Y-73613095D01*
X88519404Y-73613095D01*
X88147976Y-72313095D02*
X87714642Y-73613095D01*
X87281309Y-72313095D01*
X97898809Y-93172380D02*
X97836904Y-92986666D01*
X97836904Y-92677142D01*
X97898809Y-92553333D01*
X97960714Y-92491428D01*
X98084523Y-92429523D01*
X98208333Y-92429523D01*
X98332142Y-92491428D01*
X98394047Y-92553333D01*
X98455952Y-92677142D01*
X98517857Y-92924761D01*
X98579761Y-93048571D01*
X98641666Y-93110476D01*
X98765476Y-93172380D01*
X98889285Y-93172380D01*
X99013095Y-93110476D01*
X99075000Y-93048571D01*
X99136904Y-92924761D01*
X99136904Y-92615238D01*
X99075000Y-92429523D01*
X98517857Y-91872380D02*
X98517857Y-91439047D01*
X97836904Y-91253333D02*
X97836904Y-91872380D01*
X99136904Y-91872380D01*
X99136904Y-91253333D01*
X97836904Y-89953333D02*
X98455952Y-90386666D01*
X97836904Y-90696190D02*
X99136904Y-90696190D01*
X99136904Y-90200952D01*
X99075000Y-90077142D01*
X99013095Y-90015238D01*
X98889285Y-89953333D01*
X98703571Y-89953333D01*
X98579761Y-90015238D01*
X98517857Y-90077142D01*
X98455952Y-90200952D01*
X98455952Y-90696190D01*
X97836904Y-89396190D02*
X99136904Y-89396190D01*
X98208333Y-88839047D02*
X98208333Y-88220000D01*
X97836904Y-88962857D02*
X99136904Y-88529523D01*
X97836904Y-88096190D01*
X97836904Y-87043809D02*
X97836904Y-87662857D01*
X99136904Y-87662857D01*
X78786904Y-109838095D02*
X79405952Y-110271428D01*
X78786904Y-110580952D02*
X80086904Y-110580952D01*
X80086904Y-110085714D01*
X80025000Y-109961904D01*
X79963095Y-109900000D01*
X79839285Y-109838095D01*
X79653571Y-109838095D01*
X79529761Y-109900000D01*
X79467857Y-109961904D01*
X79405952Y-110085714D01*
X79405952Y-110580952D01*
X79467857Y-109280952D02*
X79467857Y-108847619D01*
X78786904Y-108661904D02*
X78786904Y-109280952D01*
X80086904Y-109280952D01*
X80086904Y-108661904D01*
X78848809Y-108166666D02*
X78786904Y-107980952D01*
X78786904Y-107671428D01*
X78848809Y-107547619D01*
X78910714Y-107485714D01*
X79034523Y-107423809D01*
X79158333Y-107423809D01*
X79282142Y-107485714D01*
X79344047Y-107547619D01*
X79405952Y-107671428D01*
X79467857Y-107919047D01*
X79529761Y-108042857D01*
X79591666Y-108104761D01*
X79715476Y-108166666D01*
X79839285Y-108166666D01*
X79963095Y-108104761D01*
X80025000Y-108042857D01*
X80086904Y-107919047D01*
X80086904Y-107609523D01*
X80025000Y-107423809D01*
X79467857Y-106866666D02*
X79467857Y-106433333D01*
X78786904Y-106247619D02*
X78786904Y-106866666D01*
X80086904Y-106866666D01*
X80086904Y-106247619D01*
X80086904Y-105876190D02*
X80086904Y-105133333D01*
X78786904Y-105504761D02*
X80086904Y-105504761D01*
X79467857Y-122414285D02*
X79405952Y-122228571D01*
X79344047Y-122166666D01*
X79220238Y-122104761D01*
X79034523Y-122104761D01*
X78910714Y-122166666D01*
X78848809Y-122228571D01*
X78786904Y-122352380D01*
X78786904Y-122847619D01*
X80086904Y-122847619D01*
X80086904Y-122414285D01*
X80025000Y-122290476D01*
X79963095Y-122228571D01*
X79839285Y-122166666D01*
X79715476Y-122166666D01*
X79591666Y-122228571D01*
X79529761Y-122290476D01*
X79467857Y-122414285D01*
X79467857Y-122847619D01*
X80086904Y-121300000D02*
X80086904Y-121052380D01*
X80025000Y-120928571D01*
X79901190Y-120804761D01*
X79653571Y-120742857D01*
X79220238Y-120742857D01*
X78972619Y-120804761D01*
X78848809Y-120928571D01*
X78786904Y-121052380D01*
X78786904Y-121300000D01*
X78848809Y-121423809D01*
X78972619Y-121547619D01*
X79220238Y-121609523D01*
X79653571Y-121609523D01*
X79901190Y-121547619D01*
X80025000Y-121423809D01*
X80086904Y-121300000D01*
X80086904Y-119938095D02*
X80086904Y-119690476D01*
X80025000Y-119566666D01*
X79901190Y-119442857D01*
X79653571Y-119380952D01*
X79220238Y-119380952D01*
X78972619Y-119442857D01*
X78848809Y-119566666D01*
X78786904Y-119690476D01*
X78786904Y-119938095D01*
X78848809Y-120061904D01*
X78972619Y-120185714D01*
X79220238Y-120247619D01*
X79653571Y-120247619D01*
X79901190Y-120185714D01*
X80025000Y-120061904D01*
X80086904Y-119938095D01*
X80086904Y-119009523D02*
X80086904Y-118266666D01*
X78786904Y-118638095D02*
X80086904Y-118638095D01*
X96407142Y-55970000D02*
X95692857Y-55970000D01*
X96550000Y-56398571D02*
X96050000Y-54898571D01*
X95550000Y-56398571D01*
X95942857Y-60612857D02*
X95728571Y-60684285D01*
X95657142Y-60755714D01*
X95585714Y-60898571D01*
X95585714Y-61112857D01*
X95657142Y-61255714D01*
X95728571Y-61327142D01*
X95871428Y-61398571D01*
X96442857Y-61398571D01*
X96442857Y-59898571D01*
X95942857Y-59898571D01*
X95800000Y-59970000D01*
X95728571Y-60041428D01*
X95657142Y-60184285D01*
X95657142Y-60327142D01*
X95728571Y-60470000D01*
X95800000Y-60541428D01*
X95942857Y-60612857D01*
X96442857Y-60612857D01*
D13*
X94650000Y-56184285D02*
X94650000Y-55041428D01*
X94935714Y-55327142D02*
X94650000Y-55041428D01*
X94364285Y-55327142D01*
D12*
X90128928Y-79995000D02*
X90252738Y-79933095D01*
X90438452Y-79933095D01*
X90624166Y-79995000D01*
X90747976Y-80118809D01*
X90809880Y-80242619D01*
X90871785Y-80490238D01*
X90871785Y-80675952D01*
X90809880Y-80923571D01*
X90747976Y-81047380D01*
X90624166Y-81171190D01*
X90438452Y-81233095D01*
X90314642Y-81233095D01*
X90128928Y-81171190D01*
X90067023Y-81109285D01*
X90067023Y-80675952D01*
X90314642Y-80675952D01*
X89509880Y-81233095D02*
X89509880Y-79933095D01*
X88767023Y-81233095D01*
X88767023Y-79933095D01*
X88147976Y-81233095D02*
X88147976Y-79933095D01*
X87838452Y-79933095D01*
X87652738Y-79995000D01*
X87528928Y-80118809D01*
X87467023Y-80242619D01*
X87405119Y-80490238D01*
X87405119Y-80675952D01*
X87467023Y-80923571D01*
X87528928Y-81047380D01*
X87652738Y-81171190D01*
X87838452Y-81233095D01*
X88147976Y-81233095D01*
D13*
X126919047Y-76674761D02*
X126776190Y-76722380D01*
X126538095Y-76722380D01*
X126442857Y-76674761D01*
X126395238Y-76627142D01*
X126347619Y-76531904D01*
X126347619Y-76436666D01*
X126395238Y-76341428D01*
X126442857Y-76293809D01*
X126538095Y-76246190D01*
X126728571Y-76198571D01*
X126823809Y-76150952D01*
X126871428Y-76103333D01*
X126919047Y-76008095D01*
X126919047Y-75912857D01*
X126871428Y-75817619D01*
X126823809Y-75770000D01*
X126728571Y-75722380D01*
X126490476Y-75722380D01*
X126347619Y-75770000D01*
X126014285Y-75722380D02*
X125776190Y-76722380D01*
X125585714Y-76008095D01*
X125395238Y-76722380D01*
X125157142Y-75722380D01*
X124776190Y-76722380D02*
X124776190Y-75722380D01*
X124538095Y-75722380D01*
X124395238Y-75770000D01*
X124300000Y-75865238D01*
X124252380Y-75960476D01*
X124204761Y-76150952D01*
X124204761Y-76293809D01*
X124252380Y-76484285D01*
X124300000Y-76579523D01*
X124395238Y-76674761D01*
X124538095Y-76722380D01*
X124776190Y-76722380D01*
X123776190Y-76722380D02*
X123776190Y-75722380D01*
X123109523Y-75722380D02*
X122919047Y-75722380D01*
X122823809Y-75770000D01*
X122728571Y-75865238D01*
X122680952Y-76055714D01*
X122680952Y-76389047D01*
X122728571Y-76579523D01*
X122823809Y-76674761D01*
X122919047Y-76722380D01*
X123109523Y-76722380D01*
X123204761Y-76674761D01*
X123300000Y-76579523D01*
X123347619Y-76389047D01*
X123347619Y-76055714D01*
X123300000Y-75865238D01*
X123204761Y-75770000D01*
X123109523Y-75722380D01*
D12*
X90430714Y-88218095D02*
X90864047Y-87599047D01*
X91173571Y-88218095D02*
X91173571Y-86918095D01*
X90678333Y-86918095D01*
X90554523Y-86980000D01*
X90492619Y-87041904D01*
X90430714Y-87165714D01*
X90430714Y-87351428D01*
X90492619Y-87475238D01*
X90554523Y-87537142D01*
X90678333Y-87599047D01*
X91173571Y-87599047D01*
X89873571Y-87537142D02*
X89440238Y-87537142D01*
X89254523Y-88218095D02*
X89873571Y-88218095D01*
X89873571Y-86918095D01*
X89254523Y-86918095D01*
X88697380Y-88218095D02*
X88697380Y-86918095D01*
X88387857Y-86918095D01*
X88202142Y-86980000D01*
X88078333Y-87103809D01*
X88016428Y-87227619D01*
X87954523Y-87475238D01*
X87954523Y-87660952D01*
X88016428Y-87908571D01*
X88078333Y-88032380D01*
X88202142Y-88156190D01*
X88387857Y-88218095D01*
X88697380Y-88218095D01*
X85787857Y-88218095D02*
X86406904Y-88218095D01*
X86406904Y-86918095D01*
X85354523Y-88218095D02*
X85354523Y-86918095D01*
X84735476Y-88218095D02*
X84735476Y-86918095D01*
X83992619Y-88218095D01*
X83992619Y-86918095D01*
X83373571Y-87537142D02*
X82940238Y-87537142D01*
X82754523Y-88218095D02*
X83373571Y-88218095D01*
X83373571Y-86918095D01*
X82754523Y-86918095D01*
D13*
X124497619Y-71672380D02*
X124830952Y-71196190D01*
X125069047Y-71672380D02*
X125069047Y-70672380D01*
X124688095Y-70672380D01*
X124592857Y-70720000D01*
X124545238Y-70767619D01*
X124497619Y-70862857D01*
X124497619Y-71005714D01*
X124545238Y-71100952D01*
X124592857Y-71148571D01*
X124688095Y-71196190D01*
X125069047Y-71196190D01*
X124116666Y-71624761D02*
X123973809Y-71672380D01*
X123735714Y-71672380D01*
X123640476Y-71624761D01*
X123592857Y-71577142D01*
X123545238Y-71481904D01*
X123545238Y-71386666D01*
X123592857Y-71291428D01*
X123640476Y-71243809D01*
X123735714Y-71196190D01*
X123926190Y-71148571D01*
X124021428Y-71100952D01*
X124069047Y-71053333D01*
X124116666Y-70958095D01*
X124116666Y-70862857D01*
X124069047Y-70767619D01*
X124021428Y-70720000D01*
X123926190Y-70672380D01*
X123688095Y-70672380D01*
X123545238Y-70720000D01*
X123259523Y-70672380D02*
X122688095Y-70672380D01*
X122973809Y-71672380D02*
X122973809Y-70672380D01*
X101878571Y-64512857D02*
X101878571Y-63312857D01*
X101307142Y-64512857D02*
X101307142Y-63312857D01*
X100621428Y-64512857D01*
X100621428Y-63312857D01*
X112950000Y-63312857D02*
X112721428Y-63312857D01*
X112607142Y-63370000D01*
X112492857Y-63484285D01*
X112435714Y-63712857D01*
X112435714Y-64112857D01*
X112492857Y-64341428D01*
X112607142Y-64455714D01*
X112721428Y-64512857D01*
X112950000Y-64512857D01*
X113064285Y-64455714D01*
X113178571Y-64341428D01*
X113235714Y-64112857D01*
X113235714Y-63712857D01*
X113178571Y-63484285D01*
X113064285Y-63370000D01*
X112950000Y-63312857D01*
X111921428Y-63312857D02*
X111921428Y-64284285D01*
X111864285Y-64398571D01*
X111807142Y-64455714D01*
X111692857Y-64512857D01*
X111464285Y-64512857D01*
X111350000Y-64455714D01*
X111292857Y-64398571D01*
X111235714Y-64284285D01*
X111235714Y-63312857D01*
X110835714Y-63312857D02*
X110150000Y-63312857D01*
X110492857Y-64512857D02*
X110492857Y-63312857D01*
X94650000Y-60155714D02*
X94650000Y-61298571D01*
X94364285Y-61012857D02*
X94650000Y-61298571D01*
X94935714Y-61012857D01*
D12*
X184416190Y-75153190D02*
X184540000Y-75215095D01*
X184787619Y-75215095D01*
X184911428Y-75153190D01*
X184973333Y-75091285D01*
X185035238Y-74967476D01*
X185035238Y-74596047D01*
X184973333Y-74472238D01*
X184911428Y-74410333D01*
X184787619Y-74348428D01*
X184540000Y-74348428D01*
X184416190Y-74410333D01*
X183301904Y-75153190D02*
X183425714Y-75215095D01*
X183673333Y-75215095D01*
X183797142Y-75153190D01*
X183859047Y-75091285D01*
X183920952Y-74967476D01*
X183920952Y-74596047D01*
X183859047Y-74472238D01*
X183797142Y-74410333D01*
X183673333Y-74348428D01*
X183425714Y-74348428D01*
X183301904Y-74410333D01*
X182744761Y-74719857D02*
X181754285Y-74719857D01*
X181135238Y-75215095D02*
X181135238Y-73915095D01*
X181135238Y-74410333D02*
X181011428Y-74348428D01*
X180763809Y-74348428D01*
X180640000Y-74410333D01*
X180578095Y-74472238D01*
X180516190Y-74596047D01*
X180516190Y-74967476D01*
X180578095Y-75091285D01*
X180640000Y-75153190D01*
X180763809Y-75215095D01*
X181011428Y-75215095D01*
X181135238Y-75153190D01*
X180082857Y-74348428D02*
X179773333Y-75215095D01*
X179463809Y-74348428D02*
X179773333Y-75215095D01*
X179897142Y-75524619D01*
X179959047Y-75586523D01*
X180082857Y-75648428D01*
X178968571Y-74719857D02*
X177978095Y-74719857D01*
X177359047Y-74348428D02*
X177359047Y-75215095D01*
X177359047Y-74472238D02*
X177297142Y-74410333D01*
X177173333Y-74348428D01*
X176987619Y-74348428D01*
X176863809Y-74410333D01*
X176801904Y-74534142D01*
X176801904Y-75215095D01*
X175625714Y-75153190D02*
X175749523Y-75215095D01*
X175997142Y-75215095D01*
X176120952Y-75153190D01*
X176182857Y-75091285D01*
X176244761Y-74967476D01*
X176244761Y-74596047D01*
X176182857Y-74472238D01*
X176120952Y-74410333D01*
X175997142Y-74348428D01*
X175749523Y-74348428D01*
X175625714Y-74410333D01*
X175068571Y-74719857D02*
X174078095Y-74719857D01*
X173520952Y-75153190D02*
X173397142Y-75215095D01*
X173149523Y-75215095D01*
X173025714Y-75153190D01*
X172963809Y-75029380D01*
X172963809Y-74967476D01*
X173025714Y-74843666D01*
X173149523Y-74781761D01*
X173335238Y-74781761D01*
X173459047Y-74719857D01*
X173520952Y-74596047D01*
X173520952Y-74534142D01*
X173459047Y-74410333D01*
X173335238Y-74348428D01*
X173149523Y-74348428D01*
X173025714Y-74410333D01*
X171849523Y-75215095D02*
X171849523Y-74534142D01*
X171911428Y-74410333D01*
X172035238Y-74348428D01*
X172282857Y-74348428D01*
X172406666Y-74410333D01*
X171849523Y-75153190D02*
X171973333Y-75215095D01*
X172282857Y-75215095D01*
X172406666Y-75153190D01*
X172468571Y-75029380D01*
X172468571Y-74905571D01*
X172406666Y-74781761D01*
X172282857Y-74719857D01*
X171973333Y-74719857D01*
X171849523Y-74657952D01*
X170301904Y-75153190D02*
X170116190Y-75215095D01*
X169806666Y-75215095D01*
X169682857Y-75153190D01*
X169620952Y-75091285D01*
X169559047Y-74967476D01*
X169559047Y-74843666D01*
X169620952Y-74719857D01*
X169682857Y-74657952D01*
X169806666Y-74596047D01*
X170054285Y-74534142D01*
X170178095Y-74472238D01*
X170240000Y-74410333D01*
X170301904Y-74286523D01*
X170301904Y-74162714D01*
X170240000Y-74038904D01*
X170178095Y-73977000D01*
X170054285Y-73915095D01*
X169744761Y-73915095D01*
X169559047Y-73977000D01*
X169001904Y-75215095D02*
X169001904Y-74348428D01*
X169001904Y-73915095D02*
X169063809Y-73977000D01*
X169001904Y-74038904D01*
X168940000Y-73977000D01*
X169001904Y-73915095D01*
X169001904Y-74038904D01*
X168382857Y-75215095D02*
X168382857Y-74348428D01*
X168382857Y-74472238D02*
X168320952Y-74410333D01*
X168197142Y-74348428D01*
X168011428Y-74348428D01*
X167887619Y-74410333D01*
X167825714Y-74534142D01*
X167825714Y-75215095D01*
X167825714Y-74534142D02*
X167763809Y-74410333D01*
X167640000Y-74348428D01*
X167454285Y-74348428D01*
X167330476Y-74410333D01*
X167268571Y-74534142D01*
X167268571Y-75215095D01*
X166463809Y-75215095D02*
X166587619Y-75153190D01*
X166649523Y-75091285D01*
X166711428Y-74967476D01*
X166711428Y-74596047D01*
X166649523Y-74472238D01*
X166587619Y-74410333D01*
X166463809Y-74348428D01*
X166278095Y-74348428D01*
X166154285Y-74410333D01*
X166092380Y-74472238D01*
X166030476Y-74596047D01*
X166030476Y-74967476D01*
X166092380Y-75091285D01*
X166154285Y-75153190D01*
X166278095Y-75215095D01*
X166463809Y-75215095D01*
X165473333Y-74348428D02*
X165473333Y-75215095D01*
X165473333Y-74472238D02*
X165411428Y-74410333D01*
X165287619Y-74348428D01*
X165101904Y-74348428D01*
X164978095Y-74410333D01*
X164916190Y-74534142D01*
X164916190Y-75215095D01*
X163306666Y-75215095D02*
X163306666Y-73915095D01*
X162563809Y-75215095D02*
X163120952Y-74472238D01*
X162563809Y-73915095D02*
X163306666Y-74657952D01*
X161449523Y-75215095D02*
X161449523Y-74534142D01*
X161511428Y-74410333D01*
X161635238Y-74348428D01*
X161882857Y-74348428D01*
X162006666Y-74410333D01*
X161449523Y-75153190D02*
X161573333Y-75215095D01*
X161882857Y-75215095D01*
X162006666Y-75153190D01*
X162068571Y-75029380D01*
X162068571Y-74905571D01*
X162006666Y-74781761D01*
X161882857Y-74719857D01*
X161573333Y-74719857D01*
X161449523Y-74657952D01*
X160644761Y-75215095D02*
X160768571Y-75153190D01*
X160830476Y-75029380D01*
X160830476Y-73915095D01*
X159963809Y-75215095D02*
X160087619Y-75153190D01*
X160149523Y-75029380D01*
X160149523Y-73915095D01*
X159592380Y-74348428D02*
X159344761Y-75215095D01*
X159097142Y-74596047D01*
X158849523Y-75215095D01*
X158601904Y-74348428D01*
X157611428Y-75153190D02*
X157735238Y-75215095D01*
X157982857Y-75215095D01*
X158106666Y-75153190D01*
X158168571Y-75029380D01*
X158168571Y-74534142D01*
X158106666Y-74410333D01*
X157982857Y-74348428D01*
X157735238Y-74348428D01*
X157611428Y-74410333D01*
X157549523Y-74534142D01*
X157549523Y-74657952D01*
X158168571Y-74781761D01*
X156992380Y-75215095D02*
X156992380Y-74348428D01*
X156992380Y-73915095D02*
X157054285Y-73977000D01*
X156992380Y-74038904D01*
X156930476Y-73977000D01*
X156992380Y-73915095D01*
X156992380Y-74038904D01*
X156559047Y-74348428D02*
X156063809Y-74348428D01*
X156373333Y-73915095D02*
X156373333Y-75029380D01*
X156311428Y-75153190D01*
X156187619Y-75215095D01*
X156063809Y-75215095D01*
X154701904Y-74038904D02*
X154640000Y-73977000D01*
X154516190Y-73915095D01*
X154206666Y-73915095D01*
X154082857Y-73977000D01*
X154020952Y-74038904D01*
X153959047Y-74162714D01*
X153959047Y-74286523D01*
X154020952Y-74472238D01*
X154763809Y-75215095D01*
X153959047Y-75215095D01*
X153154285Y-73915095D02*
X153030476Y-73915095D01*
X152906666Y-73977000D01*
X152844761Y-74038904D01*
X152782857Y-74162714D01*
X152720952Y-74410333D01*
X152720952Y-74719857D01*
X152782857Y-74967476D01*
X152844761Y-75091285D01*
X152906666Y-75153190D01*
X153030476Y-75215095D01*
X153154285Y-75215095D01*
X153278095Y-75153190D01*
X153340000Y-75091285D01*
X153401904Y-74967476D01*
X153463809Y-74719857D01*
X153463809Y-74410333D01*
X153401904Y-74162714D01*
X153340000Y-74038904D01*
X153278095Y-73977000D01*
X153154285Y-73915095D01*
X151482857Y-75215095D02*
X152225714Y-75215095D01*
X151854285Y-75215095D02*
X151854285Y-73915095D01*
X151978095Y-74100809D01*
X152101904Y-74224619D01*
X152225714Y-74286523D01*
X150740000Y-74472238D02*
X150863809Y-74410333D01*
X150925714Y-74348428D01*
X150987619Y-74224619D01*
X150987619Y-74162714D01*
X150925714Y-74038904D01*
X150863809Y-73977000D01*
X150740000Y-73915095D01*
X150492380Y-73915095D01*
X150368571Y-73977000D01*
X150306666Y-74038904D01*
X150244761Y-74162714D01*
X150244761Y-74224619D01*
X150306666Y-74348428D01*
X150368571Y-74410333D01*
X150492380Y-74472238D01*
X150740000Y-74472238D01*
X150863809Y-74534142D01*
X150925714Y-74596047D01*
X150987619Y-74719857D01*
X150987619Y-74967476D01*
X150925714Y-75091285D01*
X150863809Y-75153190D01*
X150740000Y-75215095D01*
X150492380Y-75215095D01*
X150368571Y-75153190D01*
X150306666Y-75091285D01*
X150244761Y-74967476D01*
X150244761Y-74719857D01*
X150306666Y-74596047D01*
X150368571Y-74534142D01*
X150492380Y-74472238D01*
X175656666Y-77308095D02*
X175656666Y-76441428D01*
X175656666Y-76689047D02*
X175594761Y-76565238D01*
X175532857Y-76503333D01*
X175409047Y-76441428D01*
X175285238Y-76441428D01*
X174356666Y-77246190D02*
X174480476Y-77308095D01*
X174728095Y-77308095D01*
X174851904Y-77246190D01*
X174913809Y-77122380D01*
X174913809Y-76627142D01*
X174851904Y-76503333D01*
X174728095Y-76441428D01*
X174480476Y-76441428D01*
X174356666Y-76503333D01*
X174294761Y-76627142D01*
X174294761Y-76750952D01*
X174913809Y-76874761D01*
X173861428Y-76441428D02*
X173613809Y-77308095D01*
X173366190Y-76689047D01*
X173118571Y-77308095D01*
X172870952Y-76441428D01*
X172190000Y-77308095D02*
X172313809Y-77246190D01*
X172375714Y-77184285D01*
X172437619Y-77060476D01*
X172437619Y-76689047D01*
X172375714Y-76565238D01*
X172313809Y-76503333D01*
X172190000Y-76441428D01*
X172004285Y-76441428D01*
X171880476Y-76503333D01*
X171818571Y-76565238D01*
X171756666Y-76689047D01*
X171756666Y-77060476D01*
X171818571Y-77184285D01*
X171880476Y-77246190D01*
X172004285Y-77308095D01*
X172190000Y-77308095D01*
X171199523Y-77308095D02*
X171199523Y-76441428D01*
X171199523Y-76689047D02*
X171137619Y-76565238D01*
X171075714Y-76503333D01*
X170951904Y-76441428D01*
X170828095Y-76441428D01*
X170394761Y-77308095D02*
X170394761Y-76008095D01*
X170270952Y-76812857D02*
X169899523Y-77308095D01*
X169899523Y-76441428D02*
X170394761Y-76936666D01*
X168351904Y-77308095D02*
X168351904Y-76008095D01*
X168351904Y-76503333D02*
X168228095Y-76441428D01*
X167980476Y-76441428D01*
X167856666Y-76503333D01*
X167794761Y-76565238D01*
X167732857Y-76689047D01*
X167732857Y-77060476D01*
X167794761Y-77184285D01*
X167856666Y-77246190D01*
X167980476Y-77308095D01*
X168228095Y-77308095D01*
X168351904Y-77246190D01*
X167299523Y-76441428D02*
X166990000Y-77308095D01*
X166680476Y-76441428D02*
X166990000Y-77308095D01*
X167113809Y-77617619D01*
X167175714Y-77679523D01*
X167299523Y-77741428D01*
X164761428Y-76627142D02*
X165194761Y-76627142D01*
X165194761Y-77308095D02*
X165194761Y-76008095D01*
X164575714Y-76008095D01*
X163399523Y-77308095D02*
X164142380Y-77308095D01*
X163770952Y-77308095D02*
X163770952Y-76008095D01*
X163894761Y-76193809D01*
X164018571Y-76317619D01*
X164142380Y-76379523D01*
X162842380Y-77308095D02*
X162842380Y-76008095D01*
X162099523Y-77308095D01*
X162099523Y-76008095D01*
X161232857Y-76008095D02*
X161109047Y-76008095D01*
X160985238Y-76070000D01*
X160923333Y-76131904D01*
X160861428Y-76255714D01*
X160799523Y-76503333D01*
X160799523Y-76812857D01*
X160861428Y-77060476D01*
X160923333Y-77184285D01*
X160985238Y-77246190D01*
X161109047Y-77308095D01*
X161232857Y-77308095D01*
X161356666Y-77246190D01*
X161418571Y-77184285D01*
X161480476Y-77060476D01*
X161542380Y-76812857D01*
X161542380Y-76503333D01*
X161480476Y-76255714D01*
X161418571Y-76131904D01*
X161356666Y-76070000D01*
X161232857Y-76008095D01*
X159623333Y-76008095D02*
X160242380Y-76008095D01*
X160304285Y-76627142D01*
X160242380Y-76565238D01*
X160118571Y-76503333D01*
X159809047Y-76503333D01*
X159685238Y-76565238D01*
X159623333Y-76627142D01*
X159561428Y-76750952D01*
X159561428Y-77060476D01*
X159623333Y-77184285D01*
X159685238Y-77246190D01*
X159809047Y-77308095D01*
X160118571Y-77308095D01*
X160242380Y-77246190D01*
X160304285Y-77184285D01*
X176399523Y-79401095D02*
X176399523Y-78101095D01*
X176399523Y-78596333D02*
X176275714Y-78534428D01*
X176028095Y-78534428D01*
X175904285Y-78596333D01*
X175842380Y-78658238D01*
X175780476Y-78782047D01*
X175780476Y-79153476D01*
X175842380Y-79277285D01*
X175904285Y-79339190D01*
X176028095Y-79401095D01*
X176275714Y-79401095D01*
X176399523Y-79339190D01*
X175037619Y-79401095D02*
X175161428Y-79339190D01*
X175223333Y-79277285D01*
X175285238Y-79153476D01*
X175285238Y-78782047D01*
X175223333Y-78658238D01*
X175161428Y-78596333D01*
X175037619Y-78534428D01*
X174851904Y-78534428D01*
X174728095Y-78596333D01*
X174666190Y-78658238D01*
X174604285Y-78782047D01*
X174604285Y-79153476D01*
X174666190Y-79277285D01*
X174728095Y-79339190D01*
X174851904Y-79401095D01*
X175037619Y-79401095D01*
X173490000Y-79401095D02*
X173490000Y-78720142D01*
X173551904Y-78596333D01*
X173675714Y-78534428D01*
X173923333Y-78534428D01*
X174047142Y-78596333D01*
X173490000Y-79339190D02*
X173613809Y-79401095D01*
X173923333Y-79401095D01*
X174047142Y-79339190D01*
X174109047Y-79215380D01*
X174109047Y-79091571D01*
X174047142Y-78967761D01*
X173923333Y-78905857D01*
X173613809Y-78905857D01*
X173490000Y-78843952D01*
X172870952Y-79401095D02*
X172870952Y-78534428D01*
X172870952Y-78782047D02*
X172809047Y-78658238D01*
X172747142Y-78596333D01*
X172623333Y-78534428D01*
X172499523Y-78534428D01*
X171509047Y-79401095D02*
X171509047Y-78101095D01*
X171509047Y-79339190D02*
X171632857Y-79401095D01*
X171880476Y-79401095D01*
X172004285Y-79339190D01*
X172066190Y-79277285D01*
X172128095Y-79153476D01*
X172128095Y-78782047D01*
X172066190Y-78658238D01*
X172004285Y-78596333D01*
X171880476Y-78534428D01*
X171632857Y-78534428D01*
X171509047Y-78596333D01*
X169899523Y-79401095D02*
X169899523Y-78534428D01*
X169899523Y-78782047D02*
X169837619Y-78658238D01*
X169775714Y-78596333D01*
X169651904Y-78534428D01*
X169528095Y-78534428D01*
X168599523Y-79339190D02*
X168723333Y-79401095D01*
X168970952Y-79401095D01*
X169094761Y-79339190D01*
X169156666Y-79215380D01*
X169156666Y-78720142D01*
X169094761Y-78596333D01*
X168970952Y-78534428D01*
X168723333Y-78534428D01*
X168599523Y-78596333D01*
X168537619Y-78720142D01*
X168537619Y-78843952D01*
X169156666Y-78967761D01*
X168104285Y-78534428D02*
X167794761Y-79401095D01*
X167485238Y-78534428D01*
X166990000Y-79401095D02*
X166990000Y-78534428D01*
X166990000Y-78101095D02*
X167051904Y-78163000D01*
X166990000Y-78224904D01*
X166928095Y-78163000D01*
X166990000Y-78101095D01*
X166990000Y-78224904D01*
X166432857Y-79339190D02*
X166309047Y-79401095D01*
X166061428Y-79401095D01*
X165937619Y-79339190D01*
X165875714Y-79215380D01*
X165875714Y-79153476D01*
X165937619Y-79029666D01*
X166061428Y-78967761D01*
X166247142Y-78967761D01*
X166370952Y-78905857D01*
X166432857Y-78782047D01*
X166432857Y-78720142D01*
X166370952Y-78596333D01*
X166247142Y-78534428D01*
X166061428Y-78534428D01*
X165937619Y-78596333D01*
X165318571Y-79401095D02*
X165318571Y-78534428D01*
X165318571Y-78101095D02*
X165380476Y-78163000D01*
X165318571Y-78224904D01*
X165256666Y-78163000D01*
X165318571Y-78101095D01*
X165318571Y-78224904D01*
X164513809Y-79401095D02*
X164637619Y-79339190D01*
X164699523Y-79277285D01*
X164761428Y-79153476D01*
X164761428Y-78782047D01*
X164699523Y-78658238D01*
X164637619Y-78596333D01*
X164513809Y-78534428D01*
X164328095Y-78534428D01*
X164204285Y-78596333D01*
X164142380Y-78658238D01*
X164080476Y-78782047D01*
X164080476Y-79153476D01*
X164142380Y-79277285D01*
X164204285Y-79339190D01*
X164328095Y-79401095D01*
X164513809Y-79401095D01*
X163523333Y-78534428D02*
X163523333Y-79401095D01*
X163523333Y-78658238D02*
X163461428Y-78596333D01*
X163337619Y-78534428D01*
X163151904Y-78534428D01*
X163028095Y-78596333D01*
X162966190Y-78720142D01*
X162966190Y-79401095D01*
X161418571Y-78224904D02*
X161356666Y-78163000D01*
X161232857Y-78101095D01*
X160923333Y-78101095D01*
X160799523Y-78163000D01*
X160737619Y-78224904D01*
X160675714Y-78348714D01*
X160675714Y-78472523D01*
X160737619Y-78658238D01*
X161480476Y-79401095D01*
X160675714Y-79401095D01*
X160118571Y-79277285D02*
X160056666Y-79339190D01*
X160118571Y-79401095D01*
X160180476Y-79339190D01*
X160118571Y-79277285D01*
X160118571Y-79401095D01*
X159251904Y-78101095D02*
X159128095Y-78101095D01*
X159004285Y-78163000D01*
X158942380Y-78224904D01*
X158880476Y-78348714D01*
X158818571Y-78596333D01*
X158818571Y-78905857D01*
X158880476Y-79153476D01*
X158942380Y-79277285D01*
X159004285Y-79339190D01*
X159128095Y-79401095D01*
X159251904Y-79401095D01*
X159375714Y-79339190D01*
X159437619Y-79277285D01*
X159499523Y-79153476D01*
X159561428Y-78905857D01*
X159561428Y-78596333D01*
X159499523Y-78348714D01*
X159437619Y-78224904D01*
X159375714Y-78163000D01*
X159251904Y-78101095D01*
X114428571Y-67148571D02*
X114428571Y-65648571D01*
X113928571Y-66720000D01*
X113428571Y-65648571D01*
X113428571Y-67148571D01*
X112714285Y-67148571D02*
X112714285Y-65648571D01*
X112000000Y-67148571D02*
X112000000Y-65648571D01*
X111642857Y-65648571D01*
X111428571Y-65720000D01*
X111285714Y-65862857D01*
X111214285Y-66005714D01*
X111142857Y-66291428D01*
X111142857Y-66505714D01*
X111214285Y-66791428D01*
X111285714Y-66934285D01*
X111428571Y-67077142D01*
X111642857Y-67148571D01*
X112000000Y-67148571D01*
X110500000Y-67148571D02*
X110500000Y-65648571D01*
X108857142Y-65648571D02*
X108000000Y-65648571D01*
X108428571Y-67148571D02*
X108428571Y-65648571D01*
X107214285Y-66434285D02*
X107214285Y-67148571D01*
X107714285Y-65648571D02*
X107214285Y-66434285D01*
X106714285Y-65648571D01*
X106214285Y-67148571D02*
X106214285Y-65648571D01*
X105642857Y-65648571D01*
X105500000Y-65720000D01*
X105428571Y-65791428D01*
X105357142Y-65934285D01*
X105357142Y-66148571D01*
X105428571Y-66291428D01*
X105500000Y-66362857D01*
X105642857Y-66434285D01*
X106214285Y-66434285D01*
X104714285Y-66362857D02*
X104214285Y-66362857D01*
X104000000Y-67148571D02*
X104714285Y-67148571D01*
X104714285Y-65648571D01*
X104000000Y-65648571D01*
X102285714Y-66720000D02*
X101571428Y-66720000D01*
X102428571Y-67148571D02*
X101928571Y-65648571D01*
X101428571Y-67148571D01*
X99857142Y-65577142D02*
X101142857Y-67505714D01*
X98857142Y-66362857D02*
X98642857Y-66434285D01*
X98571428Y-66505714D01*
X98500000Y-66648571D01*
X98500000Y-66862857D01*
X98571428Y-67005714D01*
X98642857Y-67077142D01*
X98785714Y-67148571D01*
X99357142Y-67148571D01*
X99357142Y-65648571D01*
X98857142Y-65648571D01*
X98714285Y-65720000D01*
X98642857Y-65791428D01*
X98571428Y-65934285D01*
X98571428Y-66077142D01*
X98642857Y-66220000D01*
X98714285Y-66291428D01*
X98857142Y-66362857D01*
X99357142Y-66362857D01*
D13*
X127211904Y-74124761D02*
X127069047Y-74172380D01*
X126830952Y-74172380D01*
X126735714Y-74124761D01*
X126688095Y-74077142D01*
X126640476Y-73981904D01*
X126640476Y-73886666D01*
X126688095Y-73791428D01*
X126735714Y-73743809D01*
X126830952Y-73696190D01*
X127021428Y-73648571D01*
X127116666Y-73600952D01*
X127164285Y-73553333D01*
X127211904Y-73458095D01*
X127211904Y-73362857D01*
X127164285Y-73267619D01*
X127116666Y-73220000D01*
X127021428Y-73172380D01*
X126783333Y-73172380D01*
X126640476Y-73220000D01*
X126307142Y-73172380D02*
X126069047Y-74172380D01*
X125878571Y-73458095D01*
X125688095Y-74172380D01*
X125450000Y-73172380D01*
X124497619Y-74077142D02*
X124545238Y-74124761D01*
X124688095Y-74172380D01*
X124783333Y-74172380D01*
X124926190Y-74124761D01*
X125021428Y-74029523D01*
X125069047Y-73934285D01*
X125116666Y-73743809D01*
X125116666Y-73600952D01*
X125069047Y-73410476D01*
X125021428Y-73315238D01*
X124926190Y-73220000D01*
X124783333Y-73172380D01*
X124688095Y-73172380D01*
X124545238Y-73220000D01*
X124497619Y-73267619D01*
X123592857Y-74172380D02*
X124069047Y-74172380D01*
X124069047Y-73172380D01*
X123259523Y-74172380D02*
X123259523Y-73172380D01*
X122688095Y-74172380D02*
X123116666Y-73600952D01*
X122688095Y-73172380D02*
X123259523Y-73743809D01*
D12*
X108631904Y-87050119D02*
X109250952Y-87483452D01*
X108631904Y-87792976D02*
X109931904Y-87792976D01*
X109931904Y-87297738D01*
X109870000Y-87173928D01*
X109808095Y-87112023D01*
X109684285Y-87050119D01*
X109498571Y-87050119D01*
X109374761Y-87112023D01*
X109312857Y-87173928D01*
X109250952Y-87297738D01*
X109250952Y-87792976D01*
X109931904Y-86616785D02*
X108631904Y-85750119D01*
X109931904Y-85750119D02*
X108631904Y-86616785D01*
D13*
X124761904Y-78270000D02*
X124857142Y-78222380D01*
X125000000Y-78222380D01*
X125142857Y-78270000D01*
X125238095Y-78365238D01*
X125285714Y-78460476D01*
X125333333Y-78650952D01*
X125333333Y-78793809D01*
X125285714Y-78984285D01*
X125238095Y-79079523D01*
X125142857Y-79174761D01*
X125000000Y-79222380D01*
X124904761Y-79222380D01*
X124761904Y-79174761D01*
X124714285Y-79127142D01*
X124714285Y-78793809D01*
X124904761Y-78793809D01*
X124285714Y-79222380D02*
X124285714Y-78222380D01*
X123714285Y-79222380D01*
X123714285Y-78222380D01*
X123238095Y-79222380D02*
X123238095Y-78222380D01*
X123000000Y-78222380D01*
X122857142Y-78270000D01*
X122761904Y-78365238D01*
X122714285Y-78460476D01*
X122666666Y-78650952D01*
X122666666Y-78793809D01*
X122714285Y-78984285D01*
X122761904Y-79079523D01*
X122857142Y-79174761D01*
X123000000Y-79222380D01*
X123238095Y-79222380D01*
D10*
X186306666Y-71024523D02*
X186306666Y-67024523D01*
X184782857Y-67024523D01*
X184401904Y-67215000D01*
X184211428Y-67405476D01*
X184020952Y-67786428D01*
X184020952Y-68357857D01*
X184211428Y-68738809D01*
X184401904Y-68929285D01*
X184782857Y-69119761D01*
X186306666Y-69119761D01*
X182306666Y-68929285D02*
X180973333Y-68929285D01*
X180401904Y-71024523D02*
X182306666Y-71024523D01*
X182306666Y-67024523D01*
X180401904Y-67024523D01*
X176401904Y-71024523D02*
X177735238Y-69119761D01*
X178687619Y-71024523D02*
X178687619Y-67024523D01*
X177163809Y-67024523D01*
X176782857Y-67215000D01*
X176592380Y-67405476D01*
X176401904Y-67786428D01*
X176401904Y-68357857D01*
X176592380Y-68738809D01*
X176782857Y-68929285D01*
X177163809Y-69119761D01*
X178687619Y-69119761D01*
X173735238Y-72357857D02*
X173735238Y-66643571D01*
X169544761Y-68929285D02*
X170878095Y-68929285D01*
X170878095Y-71024523D02*
X170878095Y-67024523D01*
X168973333Y-67024523D01*
X166687619Y-67024523D02*
X165925714Y-67024523D01*
X165544761Y-67215000D01*
X165163809Y-67595952D01*
X164973333Y-68357857D01*
X164973333Y-69691190D01*
X165163809Y-70453095D01*
X165544761Y-70834047D01*
X165925714Y-71024523D01*
X166687619Y-71024523D01*
X167068571Y-70834047D01*
X167449523Y-70453095D01*
X167640000Y-69691190D01*
X167640000Y-68357857D01*
X167449523Y-67595952D01*
X167068571Y-67215000D01*
X166687619Y-67024523D01*
X160973333Y-71024523D02*
X162306666Y-69119761D01*
X163259047Y-71024523D02*
X163259047Y-67024523D01*
X161735238Y-67024523D01*
X161354285Y-67215000D01*
X161163809Y-67405476D01*
X160973333Y-67786428D01*
X160973333Y-68357857D01*
X161163809Y-68738809D01*
X161354285Y-68929285D01*
X161735238Y-69119761D01*
X163259047Y-69119761D01*
X159259047Y-71024523D02*
X159259047Y-67024523D01*
X157925714Y-69881666D01*
X156592380Y-67024523D01*
X156592380Y-71024523D01*
X154687619Y-68929285D02*
X153354285Y-68929285D01*
X152782857Y-71024523D02*
X154687619Y-71024523D01*
X154687619Y-67024523D01*
X152782857Y-67024523D01*
X148782857Y-71024523D02*
X150116190Y-69119761D01*
X151068571Y-71024523D02*
X151068571Y-67024523D01*
X149544761Y-67024523D01*
X149163809Y-67215000D01*
X148973333Y-67405476D01*
X148782857Y-67786428D01*
X148782857Y-68357857D01*
X148973333Y-68738809D01*
X149163809Y-68929285D01*
X149544761Y-69119761D01*
X151068571Y-69119761D01*
D12*
X122214285Y-81896190D02*
X122028571Y-81958095D01*
X121719047Y-81958095D01*
X121595238Y-81896190D01*
X121533333Y-81834285D01*
X121471428Y-81710476D01*
X121471428Y-81586666D01*
X121533333Y-81462857D01*
X121595238Y-81400952D01*
X121719047Y-81339047D01*
X121966666Y-81277142D01*
X122090476Y-81215238D01*
X122152380Y-81153333D01*
X122214285Y-81029523D01*
X122214285Y-80905714D01*
X122152380Y-80781904D01*
X122090476Y-80720000D01*
X121966666Y-80658095D01*
X121657142Y-80658095D01*
X121471428Y-80720000D01*
X121038095Y-80658095D02*
X120728571Y-81958095D01*
X120480952Y-81029523D01*
X120233333Y-81958095D01*
X119923809Y-80658095D01*
X119428571Y-81958095D02*
X119428571Y-80658095D01*
X119119047Y-80658095D01*
X118933333Y-80720000D01*
X118809523Y-80843809D01*
X118747619Y-80967619D01*
X118685714Y-81215238D01*
X118685714Y-81400952D01*
X118747619Y-81648571D01*
X118809523Y-81772380D01*
X118933333Y-81896190D01*
X119119047Y-81958095D01*
X119428571Y-81958095D01*
D11*
X82981904Y-61882976D02*
X83629523Y-61882976D01*
X83705714Y-61921071D01*
X83743809Y-61959166D01*
X83781904Y-62035357D01*
X83781904Y-62187738D01*
X83743809Y-62263928D01*
X83705714Y-62302023D01*
X83629523Y-62340119D01*
X82981904Y-62340119D01*
X83781904Y-63140119D02*
X83781904Y-62682976D01*
X83781904Y-62911547D02*
X82981904Y-62911547D01*
X83096190Y-62835357D01*
X83172380Y-62759166D01*
X83210476Y-62682976D01*
X82981904Y-63825833D02*
X82981904Y-63673452D01*
X83020000Y-63597261D01*
X83058095Y-63559166D01*
X83172380Y-63482976D01*
X83324761Y-63444880D01*
X83629523Y-63444880D01*
X83705714Y-63482976D01*
X83743809Y-63521071D01*
X83781904Y-63597261D01*
X83781904Y-63749642D01*
X83743809Y-63825833D01*
X83705714Y-63863928D01*
X83629523Y-63902023D01*
X83439047Y-63902023D01*
X83362857Y-63863928D01*
X83324761Y-63825833D01*
X83286666Y-63749642D01*
X83286666Y-63597261D01*
X83324761Y-63521071D01*
X83362857Y-63482976D01*
X83439047Y-63444880D01*
X84486666Y-70681904D02*
X84486666Y-71253333D01*
X84524761Y-71367619D01*
X84600952Y-71443809D01*
X84715238Y-71481904D01*
X84791428Y-71481904D01*
X84105714Y-71481904D02*
X84105714Y-70681904D01*
X83800952Y-70681904D01*
X83724761Y-70720000D01*
X83686666Y-70758095D01*
X83648571Y-70834285D01*
X83648571Y-70948571D01*
X83686666Y-71024761D01*
X83724761Y-71062857D01*
X83800952Y-71100952D01*
X84105714Y-71100952D01*
X82924761Y-70681904D02*
X83305714Y-70681904D01*
X83343809Y-71062857D01*
X83305714Y-71024761D01*
X83229523Y-70986666D01*
X83039047Y-70986666D01*
X82962857Y-71024761D01*
X82924761Y-71062857D01*
X82886666Y-71139047D01*
X82886666Y-71329523D01*
X82924761Y-71405714D01*
X82962857Y-71443809D01*
X83039047Y-71481904D01*
X83229523Y-71481904D01*
X83305714Y-71443809D01*
X83343809Y-71405714D01*
X116401904Y-89503333D02*
X116973333Y-89503333D01*
X117087619Y-89465238D01*
X117163809Y-89389047D01*
X117201904Y-89274761D01*
X117201904Y-89198571D01*
X117201904Y-89884285D02*
X116401904Y-89884285D01*
X116401904Y-90189047D01*
X116440000Y-90265238D01*
X116478095Y-90303333D01*
X116554285Y-90341428D01*
X116668571Y-90341428D01*
X116744761Y-90303333D01*
X116782857Y-90265238D01*
X116820952Y-90189047D01*
X116820952Y-89884285D01*
X116401904Y-91027142D02*
X116401904Y-90874761D01*
X116440000Y-90798571D01*
X116478095Y-90760476D01*
X116592380Y-90684285D01*
X116744761Y-90646190D01*
X117049523Y-90646190D01*
X117125714Y-90684285D01*
X117163809Y-90722380D01*
X117201904Y-90798571D01*
X117201904Y-90950952D01*
X117163809Y-91027142D01*
X117125714Y-91065238D01*
X117049523Y-91103333D01*
X116859047Y-91103333D01*
X116782857Y-91065238D01*
X116744761Y-91027142D01*
X116706666Y-90950952D01*
X116706666Y-90798571D01*
X116744761Y-90722380D01*
X116782857Y-90684285D01*
X116859047Y-90646190D01*
X112697619Y-53043809D02*
X112583333Y-53081904D01*
X112392857Y-53081904D01*
X112316666Y-53043809D01*
X112278571Y-53005714D01*
X112240476Y-52929523D01*
X112240476Y-52853333D01*
X112278571Y-52777142D01*
X112316666Y-52739047D01*
X112392857Y-52700952D01*
X112545238Y-52662857D01*
X112621428Y-52624761D01*
X112659523Y-52586666D01*
X112697619Y-52510476D01*
X112697619Y-52434285D01*
X112659523Y-52358095D01*
X112621428Y-52320000D01*
X112545238Y-52281904D01*
X112354761Y-52281904D01*
X112240476Y-52320000D01*
X111973809Y-52281904D02*
X111783333Y-53081904D01*
X111630952Y-52510476D01*
X111478571Y-53081904D01*
X111288095Y-52281904D01*
X110640476Y-52548571D02*
X110640476Y-53081904D01*
X110830952Y-52243809D02*
X111021428Y-52815238D01*
X110526190Y-52815238D01*
X109802380Y-53081904D02*
X110259523Y-53081904D01*
X110030952Y-53081904D02*
X110030952Y-52281904D01*
X110107142Y-52396190D01*
X110183333Y-52472380D01*
X110259523Y-52510476D01*
X100197619Y-53043809D02*
X100083333Y-53081904D01*
X99892857Y-53081904D01*
X99816666Y-53043809D01*
X99778571Y-53005714D01*
X99740476Y-52929523D01*
X99740476Y-52853333D01*
X99778571Y-52777142D01*
X99816666Y-52739047D01*
X99892857Y-52700952D01*
X100045238Y-52662857D01*
X100121428Y-52624761D01*
X100159523Y-52586666D01*
X100197619Y-52510476D01*
X100197619Y-52434285D01*
X100159523Y-52358095D01*
X100121428Y-52320000D01*
X100045238Y-52281904D01*
X99854761Y-52281904D01*
X99740476Y-52320000D01*
X99473809Y-52281904D02*
X99283333Y-53081904D01*
X99130952Y-52510476D01*
X98978571Y-53081904D01*
X98788095Y-52281904D01*
X98140476Y-52548571D02*
X98140476Y-53081904D01*
X98330952Y-52243809D02*
X98521428Y-52815238D01*
X98026190Y-52815238D01*
X97569047Y-52281904D02*
X97492857Y-52281904D01*
X97416666Y-52320000D01*
X97378571Y-52358095D01*
X97340476Y-52434285D01*
X97302380Y-52586666D01*
X97302380Y-52777142D01*
X97340476Y-52929523D01*
X97378571Y-53005714D01*
X97416666Y-53043809D01*
X97492857Y-53081904D01*
X97569047Y-53081904D01*
X97645238Y-53043809D01*
X97683333Y-53005714D01*
X97721428Y-52929523D01*
X97759523Y-52777142D01*
X97759523Y-52586666D01*
X97721428Y-52434285D01*
X97683333Y-52358095D01*
X97645238Y-52320000D01*
X97569047Y-52281904D01*
X121333333Y-68292380D02*
X121333333Y-69006666D01*
X121380952Y-69149523D01*
X121476190Y-69244761D01*
X121619047Y-69292380D01*
X121714285Y-69292380D01*
X120857142Y-69292380D02*
X120857142Y-68292380D01*
X120476190Y-68292380D01*
X120380952Y-68340000D01*
X120333333Y-68387619D01*
X120285714Y-68482857D01*
X120285714Y-68625714D01*
X120333333Y-68720952D01*
X120380952Y-68768571D01*
X120476190Y-68816190D01*
X120857142Y-68816190D01*
X119428571Y-68625714D02*
X119428571Y-69292380D01*
X119666666Y-68244761D02*
X119904761Y-68959047D01*
X119285714Y-68959047D01*
D14*
X84360000Y-68665000D02*
X84360000Y-57065000D01*
X92860000Y-57065000D02*
X92860000Y-68665000D01*
X92860000Y-68665000D02*
X84360000Y-68665000D01*
X84360000Y-57065000D02*
X92860000Y-57065000D01*
D15*
X81220000Y-81915000D02*
X81220000Y-71695000D01*
X81220000Y-81915000D02*
X83820000Y-81915000D01*
X86420000Y-84515000D02*
X86420000Y-71695000D01*
X83820000Y-81915000D02*
X83820000Y-84515000D01*
X81220000Y-84515000D02*
X82550000Y-84515000D01*
X83820000Y-84515000D02*
X86420000Y-84515000D01*
X81220000Y-71695000D02*
X86420000Y-71695000D01*
X81220000Y-83185000D02*
X81220000Y-84515000D01*
X115630000Y-88840000D02*
X115630000Y-91500000D01*
X102870000Y-88840000D02*
X115630000Y-88840000D01*
X100270000Y-88840000D02*
X100270000Y-90170000D01*
X101600000Y-88840000D02*
X100270000Y-88840000D01*
X102870000Y-91500000D02*
X115630000Y-91500000D01*
X102870000Y-88840000D02*
X102870000Y-91500000D01*
X109840000Y-53610000D02*
X113660000Y-53610000D01*
X109840000Y-62830000D02*
X109840000Y-61480000D01*
X113660000Y-53610000D02*
X113660000Y-54960000D01*
X113660000Y-59960000D02*
X113660000Y-58980000D01*
X109840000Y-57460000D02*
X109840000Y-56480000D01*
X109840000Y-54960000D02*
X109840000Y-53610000D01*
X109840000Y-59960000D02*
X109840000Y-58980000D01*
X113660000Y-62830000D02*
X113660000Y-61480000D01*
X113660000Y-57460000D02*
X113660000Y-56480000D01*
X109840000Y-62830000D02*
X113660000Y-62830000D01*
X99340000Y-54960000D02*
X99340000Y-53610000D01*
X103160000Y-59960000D02*
X103160000Y-58980000D01*
X99340000Y-57460000D02*
X99340000Y-56480000D01*
X99340000Y-62830000D02*
X103160000Y-62830000D01*
X103160000Y-53610000D02*
X103160000Y-54960000D01*
X99340000Y-59960000D02*
X99340000Y-58980000D01*
X99340000Y-53610000D02*
X103160000Y-53610000D01*
X103160000Y-62830000D02*
X103160000Y-61480000D01*
X103160000Y-57460000D02*
X103160000Y-56480000D01*
X99340000Y-62830000D02*
X99340000Y-61480000D01*
X121830000Y-72440000D02*
X119170000Y-72440000D01*
X121830000Y-69840000D02*
X120500000Y-69840000D01*
X119170000Y-72440000D02*
X119170000Y-80120000D01*
X121830000Y-71170000D02*
X121830000Y-69840000D01*
X121830000Y-72440000D02*
X121830000Y-80120000D01*
X121830000Y-80120000D02*
X119170000Y-80120000D01*
M02*
