G04 #@! TF.GenerationSoftware,KiCad,Pcbnew,6.0.1-79c1e3a40b~116~ubuntu21.04.1*
G04 #@! TF.CreationDate,2023-10-19T20:46:09+02:00*
G04 #@! TF.ProjectId,sequencer,73657175-656e-4636-9572-2e6b69636164,1.1*
G04 #@! TF.SameCoordinates,Original*
G04 #@! TF.FileFunction,Soldermask,Bot*
G04 #@! TF.FilePolarity,Negative*
%FSLAX46Y46*%
G04 Gerber Fmt 4.6, Leading zero omitted, Abs format (unit mm)*
G04 Created by KiCad (PCBNEW 6.0.1-79c1e3a40b~116~ubuntu21.04.1) date 2023-10-19 20:46:09*
%MOMM*%
%LPD*%
G01*
G04 APERTURE LIST*
G04 Aperture macros list*
%AMRoundRect*
0 Rectangle with rounded corners*
0 $1 Rounding radius*
0 $2 $3 $4 $5 $6 $7 $8 $9 X,Y pos of 4 corners*
0 Add a 4 corners polygon primitive as box body*
4,1,4,$2,$3,$4,$5,$6,$7,$8,$9,$2,$3,0*
0 Add four circle primitives for the rounded corners*
1,1,$1+$1,$2,$3*
1,1,$1+$1,$4,$5*
1,1,$1+$1,$6,$7*
1,1,$1+$1,$8,$9*
0 Add four rect primitives between the rounded corners*
20,1,$1+$1,$2,$3,$4,$5,0*
20,1,$1+$1,$4,$5,$6,$7,0*
20,1,$1+$1,$6,$7,$8,$9,0*
20,1,$1+$1,$8,$9,$2,$3,0*%
G04 Aperture macros list end*
%ADD10C,2.200000*%
%ADD11RoundRect,0.100000X-0.900000X-0.900000X0.900000X-0.900000X0.900000X0.900000X-0.900000X0.900000X0*%
%ADD12C,2.000000*%
%ADD13C,1.950000*%
%ADD14O,4.200000X4.200000*%
%ADD15C,5.600000*%
%ADD16RoundRect,0.100000X-0.850000X0.850000X-0.850000X-0.850000X0.850000X-0.850000X0.850000X0.850000X0*%
%ADD17O,1.900000X1.900000*%
%ADD18C,1.600000*%
%ADD19C,1.500000*%
%ADD20O,2.100000X3.100000*%
%ADD21O,3.100000X2.100000*%
%ADD22C,3.200000*%
%ADD23O,2.100000X1.400000*%
%ADD24O,2.300000X1.500000*%
%ADD25RoundRect,0.100000X0.838200X-0.838200X0.838200X0.838200X-0.838200X0.838200X-0.838200X-0.838200X0*%
%ADD26C,1.876400*%
%ADD27RoundRect,0.100000X-0.850000X-0.850000X0.850000X-0.850000X0.850000X0.850000X-0.850000X0.850000X0*%
%ADD28RoundRect,0.400000X-0.950000X0.300000X-0.950000X-0.300000X0.950000X-0.300000X0.950000X0.300000X0*%
%ADD29RoundRect,0.100000X0.850000X0.850000X-0.850000X0.850000X-0.850000X-0.850000X0.850000X-0.850000X0*%
G04 APERTURE END LIST*
D10*
X128195000Y-103850000D03*
X134695000Y-103850000D03*
X128195000Y-99350000D03*
X134695000Y-99350000D03*
X143435000Y-103850000D03*
X149935000Y-103850000D03*
X143435000Y-99350000D03*
X149935000Y-99350000D03*
X158675000Y-103850000D03*
X165175000Y-103850000D03*
X158675000Y-99350000D03*
X165175000Y-99350000D03*
X173915000Y-103850000D03*
X180415000Y-103850000D03*
X173915000Y-99350000D03*
X180415000Y-99350000D03*
X189155000Y-103850000D03*
X195655000Y-103850000D03*
X189155000Y-99350000D03*
X195655000Y-99350000D03*
X85650000Y-103850000D03*
X92150000Y-103850000D03*
X85650000Y-99350000D03*
X92150000Y-99350000D03*
X98350000Y-103850000D03*
X104850000Y-103850000D03*
X98350000Y-99350000D03*
X104850000Y-99350000D03*
X85650000Y-116550000D03*
X92150000Y-116550000D03*
X85650000Y-112050000D03*
X92150000Y-112050000D03*
X98350000Y-116550000D03*
X104850000Y-116550000D03*
X98350000Y-112050000D03*
X104850000Y-112050000D03*
X85650000Y-129250000D03*
X92150000Y-129250000D03*
X85650000Y-124750000D03*
X92150000Y-124750000D03*
X98350000Y-129250000D03*
X104850000Y-129250000D03*
X98350000Y-124750000D03*
X104850000Y-124750000D03*
X85650000Y-141950000D03*
X92150000Y-141950000D03*
X85650000Y-137450000D03*
X92150000Y-137450000D03*
X98350000Y-141950000D03*
X104850000Y-141950000D03*
X98350000Y-137450000D03*
X104850000Y-137450000D03*
X117400000Y-116550000D03*
X123900000Y-116550000D03*
X117400000Y-112050000D03*
X123900000Y-112050000D03*
X130100000Y-116550000D03*
X136600000Y-116550000D03*
X130100000Y-112050000D03*
X136600000Y-112050000D03*
X142800000Y-116550000D03*
X149300000Y-116550000D03*
X142800000Y-112050000D03*
X149300000Y-112050000D03*
X155500000Y-116550000D03*
X162000000Y-116550000D03*
X155500000Y-112050000D03*
X162000000Y-112050000D03*
X168200000Y-116550000D03*
X174700000Y-116550000D03*
X168200000Y-112050000D03*
X174700000Y-112050000D03*
X180900000Y-116550000D03*
X187400000Y-116550000D03*
X180900000Y-112050000D03*
X187400000Y-112050000D03*
X193600000Y-116550000D03*
X200100000Y-116550000D03*
X193600000Y-112050000D03*
X200100000Y-112050000D03*
X206300000Y-116550000D03*
X212800000Y-116550000D03*
X206300000Y-112050000D03*
X212800000Y-112050000D03*
X117400000Y-129250000D03*
X123900000Y-129250000D03*
X117400000Y-124750000D03*
X123900000Y-124750000D03*
X130100000Y-129250000D03*
X136600000Y-129250000D03*
X130100000Y-124750000D03*
X136600000Y-124750000D03*
X142800000Y-129250000D03*
X149300000Y-129250000D03*
X142800000Y-124750000D03*
X149300000Y-124750000D03*
X155500000Y-129250000D03*
X162000000Y-129250000D03*
X155500000Y-124750000D03*
X162000000Y-124750000D03*
X168200000Y-129250000D03*
X174700000Y-129250000D03*
X168200000Y-124750000D03*
X174700000Y-124750000D03*
X180900000Y-129250000D03*
X187400000Y-129250000D03*
X180900000Y-124750000D03*
X187400000Y-124750000D03*
X193600000Y-129250000D03*
X200100000Y-129250000D03*
X193600000Y-124750000D03*
X200100000Y-124750000D03*
X206300000Y-129250000D03*
X212800000Y-129250000D03*
X206300000Y-124750000D03*
X212800000Y-124750000D03*
X117400000Y-141950000D03*
X123900000Y-141950000D03*
X117400000Y-137450000D03*
X123900000Y-137450000D03*
X130100000Y-141950000D03*
X136600000Y-141950000D03*
X130100000Y-137450000D03*
X136600000Y-137450000D03*
X142800000Y-141950000D03*
X149300000Y-141950000D03*
X142800000Y-137450000D03*
X149300000Y-137450000D03*
X155500000Y-141950000D03*
X162000000Y-141950000D03*
X155500000Y-137450000D03*
X162000000Y-137450000D03*
X168200000Y-141950000D03*
X174700000Y-141950000D03*
X168200000Y-137450000D03*
X174700000Y-137450000D03*
X180900000Y-141950000D03*
X187400000Y-141950000D03*
X180900000Y-137450000D03*
X187400000Y-137450000D03*
X193600000Y-141950000D03*
X200100000Y-141950000D03*
X193600000Y-137450000D03*
X200100000Y-137450000D03*
X206300000Y-141950000D03*
X212800000Y-141950000D03*
X206300000Y-137450000D03*
X212800000Y-137450000D03*
D11*
X86360000Y-95250000D03*
D12*
X88900000Y-95250000D03*
X91440000Y-95250000D03*
D11*
X99060000Y-95250000D03*
D12*
X101600000Y-95250000D03*
X104140000Y-95250000D03*
D11*
X86360000Y-107950000D03*
D12*
X88900000Y-107950000D03*
X91440000Y-107950000D03*
D11*
X99060000Y-107950000D03*
D12*
X101600000Y-107950000D03*
X104140000Y-107950000D03*
D11*
X86360000Y-120650000D03*
D12*
X88900000Y-120650000D03*
X91440000Y-120650000D03*
D11*
X99060000Y-120650000D03*
D12*
X101600000Y-120650000D03*
X104140000Y-120650000D03*
D11*
X86360000Y-133350000D03*
D12*
X88900000Y-133350000D03*
X91440000Y-133350000D03*
D11*
X99060000Y-133350000D03*
D12*
X101600000Y-133350000D03*
X104140000Y-133350000D03*
D11*
X118110000Y-107950000D03*
D12*
X120650000Y-107950000D03*
X123190000Y-107950000D03*
D11*
X130810000Y-107950000D03*
D12*
X133350000Y-107950000D03*
X135890000Y-107950000D03*
D11*
X143510000Y-107950000D03*
D12*
X146050000Y-107950000D03*
X148590000Y-107950000D03*
D11*
X156210000Y-107950000D03*
D12*
X158750000Y-107950000D03*
X161290000Y-107950000D03*
D11*
X168910000Y-107950000D03*
D12*
X171450000Y-107950000D03*
X173990000Y-107950000D03*
D11*
X181610000Y-107950000D03*
D12*
X184150000Y-107950000D03*
X186690000Y-107950000D03*
D11*
X194310000Y-107950000D03*
D12*
X196850000Y-107950000D03*
X199390000Y-107950000D03*
D11*
X207010000Y-107950000D03*
D12*
X209550000Y-107950000D03*
X212090000Y-107950000D03*
D11*
X118110000Y-120650000D03*
D12*
X120650000Y-120650000D03*
X123190000Y-120650000D03*
D11*
X130810000Y-120650000D03*
D12*
X133350000Y-120650000D03*
X135890000Y-120650000D03*
D11*
X143510000Y-120650000D03*
D12*
X146050000Y-120650000D03*
X148590000Y-120650000D03*
D11*
X156210000Y-120650000D03*
D12*
X158750000Y-120650000D03*
X161290000Y-120650000D03*
D11*
X168910000Y-120650000D03*
D12*
X171450000Y-120650000D03*
X173990000Y-120650000D03*
D11*
X181610000Y-120650000D03*
D12*
X184150000Y-120650000D03*
X186690000Y-120650000D03*
D11*
X194310000Y-120650000D03*
D12*
X196850000Y-120650000D03*
X199390000Y-120650000D03*
D11*
X207010000Y-120650000D03*
D12*
X209550000Y-120650000D03*
X212090000Y-120650000D03*
D11*
X118110000Y-133350000D03*
D12*
X120650000Y-133350000D03*
X123190000Y-133350000D03*
D11*
X130810000Y-133350000D03*
D12*
X133350000Y-133350000D03*
X135890000Y-133350000D03*
D11*
X143510000Y-133350000D03*
D12*
X146050000Y-133350000D03*
X148590000Y-133350000D03*
D11*
X156210000Y-133350000D03*
D12*
X158750000Y-133350000D03*
X161290000Y-133350000D03*
D11*
X168910000Y-133350000D03*
D12*
X171450000Y-133350000D03*
X173990000Y-133350000D03*
D11*
X181610000Y-133350000D03*
D12*
X184150000Y-133350000D03*
X186690000Y-133350000D03*
D11*
X194310000Y-133350000D03*
D12*
X196850000Y-133350000D03*
X199390000Y-133350000D03*
D11*
X207010000Y-133350000D03*
D12*
X209550000Y-133350000D03*
X212090000Y-133350000D03*
D13*
X105450000Y-83065000D03*
X110450000Y-83065000D03*
X107950000Y-83065000D03*
X105450000Y-68565000D03*
X110450000Y-68565000D03*
D14*
X114150000Y-75565000D03*
X101750000Y-75565000D03*
D15*
X203525000Y-56380000D03*
X120325000Y-56380000D03*
X120325000Y-94380000D03*
X203525000Y-94380000D03*
D16*
X186055000Y-55880000D03*
D17*
X183515000Y-55880000D03*
X180975000Y-55880000D03*
X178435000Y-55880000D03*
X175895000Y-55880000D03*
X173355000Y-55880000D03*
X170815000Y-55880000D03*
X168275000Y-55880000D03*
X165735000Y-55880000D03*
X163195000Y-55880000D03*
X160655000Y-55880000D03*
X158115000Y-55880000D03*
X155575000Y-55880000D03*
X153035000Y-55880000D03*
X150495000Y-55880000D03*
X147955000Y-55880000D03*
X145415000Y-55880000D03*
X142875000Y-55880000D03*
X140335000Y-55880000D03*
X137795000Y-55880000D03*
D18*
X90210000Y-53340000D03*
X89110000Y-54440000D03*
X88010000Y-53340000D03*
X86910000Y-54440000D03*
X85810000Y-53340000D03*
X84710000Y-54440000D03*
X83610000Y-53340000D03*
X82510000Y-54440000D03*
D10*
X82060000Y-50170000D03*
X90660000Y-50170000D03*
D19*
X82860000Y-45720000D03*
X85360000Y-45720000D03*
X87360000Y-45720000D03*
X89860000Y-45720000D03*
D20*
X79790000Y-45120000D03*
D21*
X86360000Y-41540000D03*
D20*
X92930000Y-45120000D03*
D22*
X127000000Y-45720000D03*
D17*
X127000000Y-52220000D03*
D23*
X127000000Y-40820000D03*
D24*
X127000000Y-49120000D03*
D22*
X152400000Y-45720000D03*
D17*
X152400000Y-52220000D03*
D23*
X152400000Y-40820000D03*
D24*
X152400000Y-49120000D03*
D22*
X241300000Y-45720000D03*
D17*
X241300000Y-52070000D03*
D23*
X241300000Y-40820000D03*
D24*
X241300000Y-49120000D03*
D22*
X241300000Y-58420000D03*
D17*
X241300000Y-52070000D03*
D23*
X241300000Y-63320000D03*
D24*
X241300000Y-55020000D03*
D22*
X241300000Y-71120000D03*
D17*
X241300000Y-77470000D03*
D23*
X241300000Y-66220000D03*
D24*
X241300000Y-74520000D03*
D22*
X241300000Y-83820000D03*
D17*
X241300000Y-77470000D03*
D23*
X241300000Y-88720000D03*
D24*
X241300000Y-80420000D03*
D22*
X241300000Y-96520000D03*
D17*
X241300000Y-102870000D03*
D23*
X241300000Y-91620000D03*
D24*
X241300000Y-99920000D03*
D22*
X241300000Y-109220000D03*
D17*
X241300000Y-102870000D03*
D23*
X241300000Y-114120000D03*
D24*
X241300000Y-105820000D03*
D22*
X241300000Y-121920000D03*
D17*
X241300000Y-128270000D03*
D23*
X241300000Y-117020000D03*
D24*
X241300000Y-125320000D03*
D22*
X241300000Y-134620000D03*
D17*
X241300000Y-128270000D03*
D23*
X241300000Y-139520000D03*
D24*
X241300000Y-131220000D03*
D22*
X177800000Y-45720000D03*
D17*
X177800000Y-52220000D03*
D23*
X177800000Y-40820000D03*
D24*
X177800000Y-49120000D03*
D22*
X190500000Y-45720000D03*
D17*
X190500000Y-52220000D03*
D23*
X190500000Y-40820000D03*
D24*
X190500000Y-49120000D03*
D22*
X203200000Y-45720000D03*
D17*
X203200000Y-52220000D03*
D23*
X203200000Y-40820000D03*
D24*
X203200000Y-49120000D03*
D22*
X215900000Y-45720000D03*
D17*
X215900000Y-52220000D03*
D23*
X215900000Y-40820000D03*
D24*
X215900000Y-49120000D03*
D22*
X228600000Y-45720000D03*
D17*
X228600000Y-52070000D03*
D23*
X228600000Y-40820000D03*
D24*
X228600000Y-49120000D03*
D22*
X228600000Y-58420000D03*
D17*
X228600000Y-52070000D03*
D23*
X228600000Y-63320000D03*
D24*
X228600000Y-55020000D03*
D22*
X228600000Y-71120000D03*
D17*
X228600000Y-77470000D03*
D23*
X228600000Y-66220000D03*
D24*
X228600000Y-74520000D03*
D22*
X228600000Y-83820000D03*
D17*
X228600000Y-77470000D03*
D23*
X228600000Y-88720000D03*
D24*
X228600000Y-80420000D03*
D22*
X228600000Y-96520000D03*
D17*
X228600000Y-102870000D03*
D23*
X228600000Y-91620000D03*
D24*
X228600000Y-99920000D03*
D22*
X228600000Y-109220000D03*
D17*
X228600000Y-102870000D03*
D23*
X228600000Y-114120000D03*
D24*
X228600000Y-105820000D03*
D22*
X228600000Y-121920000D03*
D17*
X228600000Y-128270000D03*
D23*
X228600000Y-117020000D03*
D24*
X228600000Y-125320000D03*
D22*
X228600000Y-134620000D03*
D17*
X228600000Y-128270000D03*
D23*
X228600000Y-139520000D03*
D24*
X228600000Y-131220000D03*
D22*
X101600000Y-45720000D03*
D24*
X101600000Y-49120000D03*
D17*
X101600000Y-52220000D03*
D23*
X101600000Y-40820000D03*
D22*
X114300000Y-45720000D03*
D24*
X114300000Y-49120000D03*
D17*
X114300000Y-52220000D03*
D23*
X114300000Y-40820000D03*
D22*
X139700000Y-45720000D03*
D17*
X139700000Y-52220000D03*
D23*
X139700000Y-40820000D03*
D24*
X139700000Y-49120000D03*
D22*
X165100000Y-45720000D03*
D17*
X165100000Y-52220000D03*
D23*
X165100000Y-40820000D03*
D24*
X165100000Y-49120000D03*
D15*
X111125000Y-139700000D03*
D25*
X86360000Y-65405000D03*
D26*
X86360000Y-62865000D03*
X86360000Y-60325000D03*
D27*
X82550000Y-83185000D03*
D17*
X85090000Y-83185000D03*
X82550000Y-80645000D03*
X85090000Y-80645000D03*
X82550000Y-78105000D03*
X85090000Y-78105000D03*
X82550000Y-75565000D03*
X85090000Y-75565000D03*
X82550000Y-73025000D03*
X85090000Y-73025000D03*
D16*
X101600000Y-90170000D03*
D17*
X104140000Y-90170000D03*
X106680000Y-90170000D03*
X109220000Y-90170000D03*
X111760000Y-90170000D03*
X114300000Y-90170000D03*
D28*
X109000000Y-55720000D03*
X109000000Y-58220000D03*
X109000000Y-60720000D03*
X114500000Y-55720000D03*
X114500000Y-58220000D03*
X114500000Y-60720000D03*
X98500000Y-55720000D03*
X98500000Y-58220000D03*
X98500000Y-60720000D03*
X104000000Y-55720000D03*
X104000000Y-58220000D03*
X104000000Y-60720000D03*
D29*
X120500000Y-71170000D03*
D17*
X120500000Y-73710000D03*
X120500000Y-76250000D03*
X120500000Y-78790000D03*
G36*
X86244938Y-54007444D02*
G01*
X86244619Y-54008555D01*
X86195233Y-54085187D01*
X86134387Y-54252358D01*
X86122680Y-54345028D01*
X86121471Y-54346621D01*
X86119487Y-54346370D01*
X86118707Y-54344568D01*
X86127334Y-54262494D01*
X86125771Y-54261358D01*
X86125599Y-54260488D01*
X86127125Y-54207102D01*
X86091361Y-54147790D01*
X86029120Y-54117186D01*
X85994979Y-54117836D01*
X85993228Y-54116869D01*
X85993190Y-54114869D01*
X85994323Y-54113934D01*
X86139652Y-54066715D01*
X86241914Y-54005754D01*
X86243914Y-54005726D01*
X86244938Y-54007444D01*
G37*
G36*
X84044938Y-54007444D02*
G01*
X84044619Y-54008555D01*
X83995233Y-54085187D01*
X83934387Y-54252358D01*
X83922680Y-54345028D01*
X83921471Y-54346621D01*
X83919487Y-54346370D01*
X83918707Y-54344568D01*
X83927334Y-54262494D01*
X83925771Y-54261358D01*
X83925599Y-54260488D01*
X83927125Y-54207102D01*
X83891361Y-54147790D01*
X83829120Y-54117186D01*
X83794979Y-54117836D01*
X83793228Y-54116869D01*
X83793190Y-54114869D01*
X83794323Y-54113934D01*
X83939652Y-54066715D01*
X84041914Y-54005754D01*
X84043914Y-54005726D01*
X84044938Y-54007444D01*
G37*
G36*
X88444938Y-54007444D02*
G01*
X88444619Y-54008555D01*
X88395233Y-54085187D01*
X88334387Y-54252358D01*
X88322680Y-54345028D01*
X88321471Y-54346621D01*
X88319487Y-54346370D01*
X88318707Y-54344568D01*
X88327334Y-54262494D01*
X88325771Y-54261358D01*
X88325599Y-54260488D01*
X88327125Y-54207102D01*
X88291361Y-54147790D01*
X88229120Y-54117186D01*
X88194979Y-54117836D01*
X88193228Y-54116869D01*
X88193190Y-54114869D01*
X88194323Y-54113934D01*
X88339652Y-54066715D01*
X88441914Y-54005754D01*
X88443914Y-54005726D01*
X88444938Y-54007444D01*
G37*
G36*
X83177663Y-54004802D02*
G01*
X83250205Y-54052272D01*
X83416952Y-54114285D01*
X83423710Y-54115187D01*
X83425294Y-54116407D01*
X83425030Y-54118389D01*
X83423597Y-54119163D01*
X83368249Y-54123385D01*
X83313005Y-54165154D01*
X83289075Y-54230255D01*
X83292833Y-54260461D01*
X83292528Y-54261181D01*
X83301069Y-54342439D01*
X83300256Y-54344266D01*
X83298267Y-54344475D01*
X83297092Y-54342871D01*
X83288156Y-54263206D01*
X83229650Y-54095199D01*
X83174872Y-54007536D01*
X83174802Y-54005537D01*
X83176498Y-54004477D01*
X83177663Y-54004802D01*
G37*
G36*
X87577663Y-54004802D02*
G01*
X87650205Y-54052272D01*
X87816952Y-54114285D01*
X87823710Y-54115187D01*
X87825294Y-54116407D01*
X87825030Y-54118389D01*
X87823597Y-54119163D01*
X87768249Y-54123385D01*
X87713005Y-54165154D01*
X87689075Y-54230255D01*
X87692833Y-54260461D01*
X87692528Y-54261181D01*
X87701069Y-54342439D01*
X87700256Y-54344266D01*
X87698267Y-54344475D01*
X87697092Y-54342871D01*
X87688156Y-54263206D01*
X87629650Y-54095199D01*
X87574872Y-54007536D01*
X87574802Y-54005537D01*
X87576498Y-54004477D01*
X87577663Y-54004802D01*
G37*
G36*
X89777663Y-54004802D02*
G01*
X89850205Y-54052272D01*
X90016952Y-54114285D01*
X90023710Y-54115187D01*
X90025294Y-54116407D01*
X90025030Y-54118389D01*
X90023597Y-54119163D01*
X89968249Y-54123385D01*
X89913005Y-54165154D01*
X89889075Y-54230255D01*
X89892833Y-54260461D01*
X89892528Y-54261181D01*
X89901069Y-54342439D01*
X89900256Y-54344266D01*
X89898267Y-54344475D01*
X89897092Y-54342871D01*
X89888156Y-54263206D01*
X89829650Y-54095199D01*
X89774872Y-54007536D01*
X89774802Y-54005537D01*
X89776498Y-54004477D01*
X89777663Y-54004802D01*
G37*
G36*
X85377663Y-54004802D02*
G01*
X85450205Y-54052272D01*
X85616952Y-54114285D01*
X85623710Y-54115187D01*
X85625294Y-54116407D01*
X85625030Y-54118389D01*
X85623597Y-54119163D01*
X85568249Y-54123385D01*
X85513005Y-54165154D01*
X85489075Y-54230255D01*
X85492833Y-54260461D01*
X85492528Y-54261181D01*
X85501069Y-54342439D01*
X85500256Y-54344266D01*
X85498267Y-54344475D01*
X85497092Y-54342871D01*
X85488156Y-54263206D01*
X85429650Y-54095199D01*
X85374872Y-54007536D01*
X85374802Y-54005537D01*
X85376498Y-54004477D01*
X85377663Y-54004802D01*
G37*
G36*
X82830385Y-53508720D02*
G01*
X82885605Y-53674718D01*
X82944561Y-53772065D01*
X82944603Y-53774065D01*
X82942892Y-53775101D01*
X82941778Y-53774790D01*
X82859812Y-53722773D01*
X82696612Y-53664660D01*
X82695316Y-53663137D01*
X82695987Y-53661253D01*
X82697131Y-53660782D01*
X82751751Y-53656615D01*
X82806995Y-53614846D01*
X82830925Y-53549745D01*
X82827167Y-53519539D01*
X82827471Y-53518819D01*
X82826498Y-53509560D01*
X82827311Y-53507733D01*
X82829300Y-53507524D01*
X82830385Y-53508720D01*
G37*
G36*
X87230385Y-53508720D02*
G01*
X87285605Y-53674718D01*
X87344561Y-53772065D01*
X87344603Y-53774065D01*
X87342892Y-53775101D01*
X87341778Y-53774790D01*
X87259812Y-53722773D01*
X87096612Y-53664660D01*
X87095316Y-53663137D01*
X87095987Y-53661253D01*
X87097131Y-53660782D01*
X87151751Y-53656615D01*
X87206995Y-53614846D01*
X87230925Y-53549745D01*
X87227167Y-53519539D01*
X87227471Y-53518819D01*
X87226498Y-53509560D01*
X87227311Y-53507733D01*
X87229300Y-53507524D01*
X87230385Y-53508720D01*
G37*
G36*
X89430385Y-53508720D02*
G01*
X89485605Y-53674718D01*
X89544561Y-53772065D01*
X89544603Y-53774065D01*
X89542892Y-53775101D01*
X89541778Y-53774790D01*
X89459812Y-53722773D01*
X89296612Y-53664660D01*
X89295316Y-53663137D01*
X89295987Y-53661253D01*
X89297131Y-53660782D01*
X89351751Y-53656615D01*
X89406995Y-53614846D01*
X89430925Y-53549745D01*
X89427167Y-53519539D01*
X89427471Y-53518819D01*
X89426498Y-53509560D01*
X89427311Y-53507733D01*
X89429300Y-53507524D01*
X89430385Y-53508720D01*
G37*
G36*
X85030385Y-53508720D02*
G01*
X85085605Y-53674718D01*
X85144561Y-53772065D01*
X85144603Y-53774065D01*
X85142892Y-53775101D01*
X85141778Y-53774790D01*
X85059812Y-53722773D01*
X84896612Y-53664660D01*
X84895316Y-53663137D01*
X84895987Y-53661253D01*
X84897131Y-53660782D01*
X84951751Y-53656615D01*
X85006995Y-53614846D01*
X85030925Y-53549745D01*
X85027167Y-53519539D01*
X85027471Y-53518819D01*
X85026498Y-53509560D01*
X85027311Y-53507733D01*
X85029300Y-53507524D01*
X85030385Y-53508720D01*
G37*
G36*
X84400116Y-53437628D02*
G01*
X84400874Y-53439413D01*
X84392666Y-53517506D01*
X84394229Y-53518642D01*
X84394401Y-53519512D01*
X84392875Y-53572898D01*
X84428639Y-53632210D01*
X84490880Y-53662814D01*
X84521835Y-53662224D01*
X84523586Y-53663191D01*
X84523624Y-53665191D01*
X84522518Y-53666117D01*
X84370233Y-53717959D01*
X84277753Y-53774853D01*
X84275754Y-53774909D01*
X84274706Y-53773206D01*
X84275039Y-53772043D01*
X84319743Y-53704758D01*
X84382917Y-53538452D01*
X84396904Y-53438926D01*
X84398136Y-53437350D01*
X84400116Y-53437628D01*
G37*
G36*
X88800116Y-53437628D02*
G01*
X88800874Y-53439413D01*
X88792666Y-53517506D01*
X88794229Y-53518642D01*
X88794401Y-53519512D01*
X88792875Y-53572898D01*
X88828639Y-53632210D01*
X88890880Y-53662814D01*
X88921835Y-53662224D01*
X88923586Y-53663191D01*
X88923624Y-53665191D01*
X88922518Y-53666117D01*
X88770233Y-53717959D01*
X88677753Y-53774853D01*
X88675754Y-53774909D01*
X88674706Y-53773206D01*
X88675039Y-53772043D01*
X88719743Y-53704758D01*
X88782917Y-53538452D01*
X88796904Y-53438926D01*
X88798136Y-53437350D01*
X88800116Y-53437628D01*
G37*
G36*
X86600116Y-53437628D02*
G01*
X86600874Y-53439413D01*
X86592666Y-53517506D01*
X86594229Y-53518642D01*
X86594401Y-53519512D01*
X86592875Y-53572898D01*
X86628639Y-53632210D01*
X86690880Y-53662814D01*
X86721835Y-53662224D01*
X86723586Y-53663191D01*
X86723624Y-53665191D01*
X86722518Y-53666117D01*
X86570233Y-53717959D01*
X86477753Y-53774853D01*
X86475754Y-53774909D01*
X86474706Y-53773206D01*
X86475039Y-53772043D01*
X86519743Y-53704758D01*
X86582917Y-53538452D01*
X86596904Y-53438926D01*
X86598136Y-53437350D01*
X86600116Y-53437628D01*
G37*
M02*
